<svg xmlns="http://www.w3.org/2000/svg" width="55.731" height="55.722" xmlns:v="https://vecta.io/nano"><path d="M55.73 9.822V5.276C55.73 2.362 53.367 0 50.454 0H5.283c-1.4 0-2.74.556-3.73 1.545S.008 3.876.008 5.276v4.46c2.097 2.006 21.3 20.22 27.955 20.22 7.043 0 25.592-18.003 27.767-20.136z" fill="#6573ff"/><path d="M45.804 26.433c-7.61 6.856-13.613 10.332-17.85 10.332C18.347 36.765 2.08 22.21 0 20.318v30.127c0 2.914 2.362 5.276 5.275 5.276h45.17c1.4 0 2.74-.556 3.73-1.545s1.545-2.33 1.545-3.73V16.41a133.42 133.42 0 0 1-9.918 10.023z" fill="#202945"/></svg>